<mxfile host="app.diagrams.net" agent="Mozilla/5.0 (X11; Linux x86_64; rv:140.0) Gecko/20100101 Firefox/140.0" version="28.0.6">
  <diagram name="Seite-1" id="-wcmFSce6gZ3StUoQiGc">
    <mxGraphModel dx="634" dy="345" grid="1" gridSize="10" guides="1" tooltips="1" connect="1" arrows="1" fold="1" page="1" pageScale="1" pageWidth="850" pageHeight="1100" math="0" shadow="0">
      <root>
        <mxCell id="0" />
        <mxCell id="1" parent="0" />
        <mxCell id="-OGjeIsqo9JkBF1w5ieS-208" value="" style="shape=umlLifeline;perimeter=lifelinePerimeter;whiteSpace=wrap;html=1;container=1;dropTarget=0;collapsible=0;recursiveResize=0;outlineConnect=0;portConstraint=eastwest;newEdgeStyle={&quot;curved&quot;:0,&quot;rounded&quot;:0};participant=umlActor;" vertex="1" parent="1">
          <mxGeometry x="15" y="70" width="20" height="360" as="geometry" />
        </mxCell>
        <mxCell id="-OGjeIsqo9JkBF1w5ieS-209" value="" style="html=1;whiteSpace=wrap;" vertex="1" parent="1">
          <mxGeometry x="15" y="120" width="20" height="290" as="geometry" />
        </mxCell>
        <mxCell id="-OGjeIsqo9JkBF1w5ieS-210" value="&lt;font style=&quot;font-size: 3px;&quot;&gt;create(HttpServlet,Request, userAccountSetupRequest)&lt;/font&gt;" style="html=1;verticalAlign=bottom;endArrow=block;curved=0;rounded=0;" edge="1" parent="1">
          <mxGeometry width="80" relative="1" as="geometry">
            <mxPoint x="35" y="130" as="sourcePoint" />
            <mxPoint x="115" y="130" as="targetPoint" />
            <mxPoint as="offset" />
          </mxGeometry>
        </mxCell>
        <mxCell id="-OGjeIsqo9JkBF1w5ieS-211" value="&lt;font style=&quot;font-size: 11px;&quot;&gt;:UserController&lt;/font&gt;" style="shape=umlLifeline;perimeter=lifelinePerimeter;whiteSpace=wrap;html=1;container=1;dropTarget=0;collapsible=0;recursiveResize=0;outlineConnect=0;portConstraint=eastwest;newEdgeStyle={&quot;curved&quot;:0,&quot;rounded&quot;:0};" vertex="1" parent="1">
          <mxGeometry x="75" y="70" width="100" height="360" as="geometry" />
        </mxCell>
        <mxCell id="-OGjeIsqo9JkBF1w5ieS-212" value="" style="html=1;whiteSpace=wrap;" vertex="1" parent="1">
          <mxGeometry x="115" y="130" width="20" height="280" as="geometry" />
        </mxCell>
        <mxCell id="-OGjeIsqo9JkBF1w5ieS-213" value="&lt;span style=&quot;font-size: 11px;&quot;&gt;:UserService&lt;/span&gt;" style="shape=umlLifeline;perimeter=lifelinePerimeter;whiteSpace=wrap;html=1;container=1;dropTarget=0;collapsible=0;recursiveResize=0;outlineConnect=0;portConstraint=eastwest;newEdgeStyle={&quot;curved&quot;:0,&quot;rounded&quot;:0};" vertex="1" parent="1">
          <mxGeometry x="185" y="70" width="100" height="360" as="geometry" />
        </mxCell>
        <mxCell id="-OGjeIsqo9JkBF1w5ieS-214" value="&lt;font style=&quot;font-size: 11px;&quot;&gt;:UserRepository&lt;/font&gt;" style="shape=umlLifeline;perimeter=lifelinePerimeter;whiteSpace=wrap;html=1;container=1;dropTarget=0;collapsible=0;recursiveResize=0;outlineConnect=0;portConstraint=eastwest;newEdgeStyle={&quot;curved&quot;:0,&quot;rounded&quot;:0};" vertex="1" parent="1">
          <mxGeometry x="405" y="70" width="100" height="360" as="geometry" />
        </mxCell>
        <mxCell id="-OGjeIsqo9JkBF1w5ieS-215" value="&lt;font style=&quot;font-size: 11px;&quot;&gt;:UserMapper&lt;/font&gt;" style="shape=umlLifeline;perimeter=lifelinePerimeter;whiteSpace=wrap;html=1;container=1;dropTarget=0;collapsible=0;recursiveResize=0;outlineConnect=0;portConstraint=eastwest;newEdgeStyle={&quot;curved&quot;:0,&quot;rounded&quot;:0};" vertex="1" parent="1">
          <mxGeometry x="295" y="70" width="100" height="360" as="geometry" />
        </mxCell>
        <mxCell id="-OGjeIsqo9JkBF1w5ieS-216" value="" style="html=1;whiteSpace=wrap;" vertex="1" parent="1">
          <mxGeometry x="225" y="190" width="20" height="220" as="geometry" />
        </mxCell>
        <mxCell id="-OGjeIsqo9JkBF1w5ieS-218" value="" style="html=1;whiteSpace=wrap;" vertex="1" parent="1">
          <mxGeometry x="335" y="242.5" width="20" height="40" as="geometry" />
        </mxCell>
        <mxCell id="-OGjeIsqo9JkBF1w5ieS-219" value="&lt;font style=&quot;font-size: 4px;&quot;&gt;of(userAccountSetupRequest)&lt;/font&gt;" style="html=1;verticalAlign=bottom;endArrow=block;curved=0;rounded=0;entryX=0;entryY=0;entryDx=0;entryDy=0;" edge="1" parent="1">
          <mxGeometry width="80" relative="1" as="geometry">
            <mxPoint x="245" y="242.5" as="sourcePoint" />
            <mxPoint x="335" y="242.5" as="targetPoint" />
          </mxGeometry>
        </mxCell>
        <mxCell id="-OGjeIsqo9JkBF1w5ieS-220" value="" style="html=1;verticalAlign=bottom;endArrow=block;curved=1;rounded=0;entryX=1;entryY=0;entryDx=0;entryDy=0;" edge="1" parent="1" target="-OGjeIsqo9JkBF1w5ieS-222">
          <mxGeometry width="80" relative="1" as="geometry">
            <mxPoint x="355" y="242.5" as="sourcePoint" />
            <mxPoint x="435" y="242.5" as="targetPoint" />
            <Array as="points">
              <mxPoint x="375" y="242.5" />
              <mxPoint x="395" y="252.5" />
            </Array>
          </mxGeometry>
        </mxCell>
        <mxCell id="-OGjeIsqo9JkBF1w5ieS-221" value="&lt;font style=&quot;font-size: 4px;&quot;&gt;validate()&lt;/font&gt;" style="text;html=1;align=center;verticalAlign=middle;resizable=0;points=[];autosize=1;strokeColor=none;fillColor=none;" vertex="1" parent="1">
          <mxGeometry x="365" y="222.5" width="40" height="30" as="geometry" />
        </mxCell>
        <mxCell id="-OGjeIsqo9JkBF1w5ieS-222" value="" style="html=1;whiteSpace=wrap;" vertex="1" parent="1">
          <mxGeometry x="345" y="252.5" width="20" height="20" as="geometry" />
        </mxCell>
        <mxCell id="-OGjeIsqo9JkBF1w5ieS-223" value="" style="endArrow=open;dashed=1;endFill=0;endSize=12;html=1;rounded=0;exitX=1;exitY=0.75;exitDx=0;exitDy=0;entryX=1;entryY=1;entryDx=0;entryDy=0;curved=1;" edge="1" parent="1" source="-OGjeIsqo9JkBF1w5ieS-222" target="-OGjeIsqo9JkBF1w5ieS-218">
          <mxGeometry width="160" relative="1" as="geometry">
            <mxPoint x="225" y="322.5" as="sourcePoint" />
            <mxPoint x="385" y="322.5" as="targetPoint" />
            <Array as="points">
              <mxPoint x="395" y="272.5" />
            </Array>
          </mxGeometry>
        </mxCell>
        <mxCell id="-OGjeIsqo9JkBF1w5ieS-224" value="" style="endArrow=open;dashed=1;endFill=0;endSize=12;html=1;rounded=0;exitX=0;exitY=1;exitDx=0;exitDy=0;entryX=0.96;entryY=0.203;entryDx=0;entryDy=0;entryPerimeter=0;" edge="1" parent="1" source="-OGjeIsqo9JkBF1w5ieS-218">
          <mxGeometry width="160" relative="1" as="geometry">
            <mxPoint x="335" y="237.5" as="sourcePoint" />
            <mxPoint x="244.20000000000005" y="282.1600000000001" as="targetPoint" />
          </mxGeometry>
        </mxCell>
        <mxCell id="-OGjeIsqo9JkBF1w5ieS-225" value="&lt;div style=&quot;line-height: 60%;&quot;&gt;&lt;div&gt;&lt;font style=&quot;font-size: 4px; line-height: 60%;&quot;&gt;user=userMapper&lt;/font&gt;&lt;/div&gt;&lt;div&gt;&lt;font style=&quot;font-size: 4px; line-height: 60%;&quot;&gt;.of(userAccountSetupRequest&lt;/font&gt;&lt;font style=&quot;font-size: 4px; line-height: 60%;&quot;&gt;)&lt;/font&gt;&lt;/div&gt;&lt;/div&gt;" style="text;html=1;align=center;verticalAlign=middle;resizable=0;points=[];autosize=1;strokeColor=none;fillColor=none;" vertex="1" parent="1">
          <mxGeometry x="255" y="255" width="80" height="30" as="geometry" />
        </mxCell>
        <mxCell id="-OGjeIsqo9JkBF1w5ieS-226" value="" style="html=1;whiteSpace=wrap;" vertex="1" parent="1">
          <mxGeometry x="445" y="350" width="20" height="60" as="geometry" />
        </mxCell>
        <mxCell id="-OGjeIsqo9JkBF1w5ieS-227" value="" style="endArrow=open;dashed=1;endFill=0;endSize=12;html=1;rounded=0;exitX=0;exitY=1;exitDx=0;exitDy=0;entryX=1;entryY=1;entryDx=0;entryDy=0;" edge="1" parent="1">
          <mxGeometry width="160" relative="1" as="geometry">
            <mxPoint x="445" y="410" as="sourcePoint" />
            <mxPoint x="245" y="410" as="targetPoint" />
          </mxGeometry>
        </mxCell>
        <mxCell id="-OGjeIsqo9JkBF1w5ieS-230" value="" style="endArrow=open;dashed=1;endFill=0;endSize=12;html=1;rounded=0;entryX=1;entryY=1;entryDx=0;entryDy=0;" edge="1" parent="1">
          <mxGeometry width="160" relative="1" as="geometry">
            <mxPoint x="225" y="410" as="sourcePoint" />
            <mxPoint x="135" y="410" as="targetPoint" />
          </mxGeometry>
        </mxCell>
        <mxCell id="-OGjeIsqo9JkBF1w5ieS-231" value="" style="endArrow=open;dashed=1;endFill=0;endSize=12;html=1;rounded=0;entryX=1;entryY=1;entryDx=0;entryDy=0;" edge="1" parent="1">
          <mxGeometry width="160" relative="1" as="geometry">
            <mxPoint x="115" y="410" as="sourcePoint" />
            <mxPoint x="35" y="409.56" as="targetPoint" />
          </mxGeometry>
        </mxCell>
        <mxCell id="-OGjeIsqo9JkBF1w5ieS-232" value="*" style="text;html=1;align=center;verticalAlign=middle;resizable=0;points=[];autosize=1;strokeColor=none;fillColor=none;" vertex="1" parent="1">
          <mxGeometry x="380" y="260.5" width="30" height="30" as="geometry" />
        </mxCell>
        <mxCell id="-OGjeIsqo9JkBF1w5ieS-234" value="&lt;div style=&quot;line-height: 60%;&quot;&gt;&lt;font style=&quot;font-size: 4px; line-height: 60%;&quot;&gt;ResponseStatus&lt;/font&gt;&lt;div&gt;&lt;font style=&quot;font-size: 4px; line-height: 60%;&quot;&gt;(HttpStatus.CREATED)&lt;/font&gt;&lt;/div&gt;&lt;/div&gt;" style="text;html=1;align=center;verticalAlign=middle;resizable=0;points=[];autosize=1;strokeColor=none;fillColor=none;" vertex="1" parent="1">
          <mxGeometry x="50" y="400" width="60" height="30" as="geometry" />
        </mxCell>
        <mxCell id="-OGjeIsqo9JkBF1w5ieS-235" value="&lt;font style=&quot;font-size: 6px;&quot;&gt;*&lt;/font&gt;" style="text;html=1;align=center;verticalAlign=middle;resizable=0;points=[];autosize=1;strokeColor=none;fillColor=none;" vertex="1" parent="1">
          <mxGeometry x="265" y="390" width="30" height="30" as="geometry" />
        </mxCell>
        <mxCell id="-OGjeIsqo9JkBF1w5ieS-236" value="" style="shape=umlLifeline;perimeter=lifelinePerimeter;whiteSpace=wrap;html=1;container=1;dropTarget=0;collapsible=0;recursiveResize=0;outlineConnect=0;portConstraint=eastwest;newEdgeStyle={&quot;curved&quot;:0,&quot;rounded&quot;:0};participant=umlActor;" vertex="1" parent="1">
          <mxGeometry x="20" y="490" width="20" height="430" as="geometry" />
        </mxCell>
        <mxCell id="-OGjeIsqo9JkBF1w5ieS-237" value="" style="html=1;whiteSpace=wrap;" vertex="1" parent="1">
          <mxGeometry x="20" y="540" width="20" height="280" as="geometry" />
        </mxCell>
        <mxCell id="-OGjeIsqo9JkBF1w5ieS-238" value="&lt;font style=&quot;font-size: 4px;&quot;&gt;get(HttpServletRequest)&lt;/font&gt;" style="html=1;verticalAlign=bottom;endArrow=block;curved=0;rounded=0;" edge="1" parent="1">
          <mxGeometry width="80" relative="1" as="geometry">
            <mxPoint x="40" y="550" as="sourcePoint" />
            <mxPoint x="120" y="550" as="targetPoint" />
            <mxPoint as="offset" />
          </mxGeometry>
        </mxCell>
        <mxCell id="-OGjeIsqo9JkBF1w5ieS-239" value="&lt;font style=&quot;font-size: 11px;&quot;&gt;:UserController&lt;/font&gt;" style="shape=umlLifeline;perimeter=lifelinePerimeter;whiteSpace=wrap;html=1;container=1;dropTarget=0;collapsible=0;recursiveResize=0;outlineConnect=0;portConstraint=eastwest;newEdgeStyle={&quot;curved&quot;:0,&quot;rounded&quot;:0};" vertex="1" parent="1">
          <mxGeometry x="80" y="490" width="100" height="430" as="geometry" />
        </mxCell>
        <mxCell id="-OGjeIsqo9JkBF1w5ieS-240" value="" style="html=1;whiteSpace=wrap;" vertex="1" parent="1">
          <mxGeometry x="120" y="550" width="20" height="270" as="geometry" />
        </mxCell>
        <mxCell id="-OGjeIsqo9JkBF1w5ieS-241" value="&lt;font style=&quot;font-size: 11px;&quot;&gt;:UserService&lt;/font&gt;" style="shape=umlLifeline;perimeter=lifelinePerimeter;whiteSpace=wrap;html=1;container=1;dropTarget=0;collapsible=0;recursiveResize=0;outlineConnect=0;portConstraint=eastwest;newEdgeStyle={&quot;curved&quot;:0,&quot;rounded&quot;:0};" vertex="1" parent="1">
          <mxGeometry x="190" y="490" width="100" height="430" as="geometry" />
        </mxCell>
        <mxCell id="-OGjeIsqo9JkBF1w5ieS-242" value="&lt;font style=&quot;font-size: 11px;&quot;&gt;:UserMapper&lt;/font&gt;" style="shape=umlLifeline;perimeter=lifelinePerimeter;whiteSpace=wrap;html=1;container=1;dropTarget=0;collapsible=0;recursiveResize=0;outlineConnect=0;portConstraint=eastwest;newEdgeStyle={&quot;curved&quot;:0,&quot;rounded&quot;:0};" vertex="1" parent="1">
          <mxGeometry x="410" y="490" width="100" height="430" as="geometry" />
        </mxCell>
        <mxCell id="-OGjeIsqo9JkBF1w5ieS-243" value="&lt;font style=&quot;font-size: 11px;&quot;&gt;:UserRepository&lt;/font&gt;" style="shape=umlLifeline;perimeter=lifelinePerimeter;whiteSpace=wrap;html=1;container=1;dropTarget=0;collapsible=0;recursiveResize=0;outlineConnect=0;portConstraint=eastwest;newEdgeStyle={&quot;curved&quot;:0,&quot;rounded&quot;:0};" vertex="1" parent="1">
          <mxGeometry x="300" y="490" width="100" height="430" as="geometry" />
        </mxCell>
        <mxCell id="-OGjeIsqo9JkBF1w5ieS-244" value="" style="html=1;whiteSpace=wrap;" vertex="1" parent="1">
          <mxGeometry x="230" y="610" width="20" height="210" as="geometry" />
        </mxCell>
        <mxCell id="-OGjeIsqo9JkBF1w5ieS-245" value="" style="html=1;whiteSpace=wrap;" vertex="1" parent="1">
          <mxGeometry x="340" y="710" width="20" height="40" as="geometry" />
        </mxCell>
        <mxCell id="-OGjeIsqo9JkBF1w5ieS-246" value="&lt;div style=&quot;line-height: 60%;&quot;&gt;&lt;span style=&quot;font-size: 4px;&quot;&gt;findById(userUUID)&lt;/span&gt;&lt;/div&gt;" style="html=1;verticalAlign=bottom;endArrow=block;curved=0;rounded=0;entryX=0;entryY=0;entryDx=0;entryDy=0;" edge="1" parent="1">
          <mxGeometry width="80" relative="1" as="geometry">
            <mxPoint x="250" y="710" as="sourcePoint" />
            <mxPoint x="340" y="710" as="targetPoint" />
          </mxGeometry>
        </mxCell>
        <mxCell id="-OGjeIsqo9JkBF1w5ieS-247" value="" style="endArrow=open;dashed=1;endFill=0;endSize=12;html=1;rounded=0;exitX=0;exitY=1;exitDx=0;exitDy=0;entryX=1.008;entryY=0.667;entryDx=0;entryDy=0;entryPerimeter=0;" edge="1" parent="1" source="-OGjeIsqo9JkBF1w5ieS-245" target="-OGjeIsqo9JkBF1w5ieS-244">
          <mxGeometry width="160" relative="1" as="geometry">
            <mxPoint x="340" y="660" as="sourcePoint" />
            <mxPoint x="255" y="750" as="targetPoint" />
          </mxGeometry>
        </mxCell>
        <mxCell id="-OGjeIsqo9JkBF1w5ieS-248" value="&lt;div style=&quot;line-height: 60%;&quot;&gt;&lt;span style=&quot;font-size: 4px;&quot;&gt;target=Optional&amp;lt;UserEntity&amp;gt;&lt;/span&gt;&lt;/div&gt;" style="text;html=1;align=center;verticalAlign=middle;resizable=0;points=[];autosize=1;strokeColor=none;fillColor=none;" vertex="1" parent="1">
          <mxGeometry x="260" y="734" width="70" height="20" as="geometry" />
        </mxCell>
        <mxCell id="-OGjeIsqo9JkBF1w5ieS-249" value="" style="html=1;whiteSpace=wrap;" vertex="1" parent="1">
          <mxGeometry x="450" y="764" width="20" height="55" as="geometry" />
        </mxCell>
        <mxCell id="-OGjeIsqo9JkBF1w5ieS-250" value="" style="endArrow=open;dashed=1;endFill=0;endSize=12;html=1;rounded=0;exitX=0;exitY=1;exitDx=0;exitDy=0;entryX=1;entryY=1;entryDx=0;entryDy=0;" edge="1" parent="1" source="-OGjeIsqo9JkBF1w5ieS-249">
          <mxGeometry width="160" relative="1" as="geometry">
            <mxPoint x="230" y="779" as="sourcePoint" />
            <mxPoint x="250" y="819" as="targetPoint" />
          </mxGeometry>
        </mxCell>
        <mxCell id="-OGjeIsqo9JkBF1w5ieS-251" value="" style="html=1;verticalAlign=bottom;endArrow=block;curved=0;rounded=0;entryX=0;entryY=0;entryDx=0;entryDy=0;" edge="1" parent="1" target="-OGjeIsqo9JkBF1w5ieS-249">
          <mxGeometry width="80" relative="1" as="geometry">
            <mxPoint x="250" y="764" as="sourcePoint" />
            <mxPoint x="330" y="764" as="targetPoint" />
          </mxGeometry>
        </mxCell>
        <mxCell id="-OGjeIsqo9JkBF1w5ieS-252" value="&lt;font style=&quot;font-size: 4px;&quot;&gt;of(target.get())&lt;/font&gt;" style="text;html=1;align=center;verticalAlign=middle;resizable=0;points=[];autosize=1;strokeColor=none;fillColor=none;" vertex="1" parent="1">
          <mxGeometry x="280" y="754" width="50" height="30" as="geometry" />
        </mxCell>
        <mxCell id="-OGjeIsqo9JkBF1w5ieS-253" value="" style="endArrow=open;dashed=1;endFill=0;endSize=12;html=1;rounded=0;entryX=1;entryY=1;entryDx=0;entryDy=0;" edge="1" parent="1">
          <mxGeometry width="160" relative="1" as="geometry">
            <mxPoint x="230" y="819" as="sourcePoint" />
            <mxPoint x="140" y="819" as="targetPoint" />
          </mxGeometry>
        </mxCell>
        <mxCell id="-OGjeIsqo9JkBF1w5ieS-254" value="" style="endArrow=open;dashed=1;endFill=0;endSize=12;html=1;rounded=0;entryX=1;entryY=1;entryDx=0;entryDy=0;" edge="1" parent="1">
          <mxGeometry width="160" relative="1" as="geometry">
            <mxPoint x="120" y="819" as="sourcePoint" />
            <mxPoint x="40" y="818.56" as="targetPoint" />
          </mxGeometry>
        </mxCell>
        <mxCell id="-OGjeIsqo9JkBF1w5ieS-255" value="&lt;font style=&quot;font-size: 4px;&quot;&gt;uL&lt;/font&gt;" style="text;html=1;align=center;verticalAlign=middle;resizable=0;points=[];autosize=1;strokeColor=none;fillColor=none;" vertex="1" parent="1">
          <mxGeometry x="170" y="809" width="30" height="30" as="geometry" />
        </mxCell>
        <mxCell id="-OGjeIsqo9JkBF1w5ieS-256" value="&lt;div style=&quot;line-height: 60%;&quot;&gt;&lt;font style=&quot;font-size: 4px;&quot;&gt;uL&lt;/font&gt;&lt;/div&gt;" style="text;html=1;align=center;verticalAlign=middle;resizable=0;points=[];autosize=1;strokeColor=none;fillColor=none;" vertex="1" parent="1">
          <mxGeometry x="70" y="814" width="30" height="20" as="geometry" />
        </mxCell>
        <mxCell id="-OGjeIsqo9JkBF1w5ieS-257" value="&lt;font style=&quot;font-size: 4px;&quot;&gt;uL=List&amp;lt;UserDTO&amp;gt;&lt;/font&gt;" style="text;html=1;align=center;verticalAlign=middle;resizable=0;points=[];autosize=1;strokeColor=none;fillColor=none;" vertex="1" parent="1">
          <mxGeometry x="275" y="809" width="60" height="30" as="geometry" />
        </mxCell>
        <mxCell id="-OGjeIsqo9JkBF1w5ieS-258" value="GET" style="text;html=1;align=center;verticalAlign=middle;resizable=0;points=[];autosize=1;strokeColor=none;fillColor=none;" vertex="1" parent="1">
          <mxGeometry x="15" y="460" width="50" height="30" as="geometry" />
        </mxCell>
        <mxCell id="-OGjeIsqo9JkBF1w5ieS-259" value="" style="shape=umlLifeline;perimeter=lifelinePerimeter;whiteSpace=wrap;html=1;container=1;dropTarget=0;collapsible=0;recursiveResize=0;outlineConnect=0;portConstraint=eastwest;newEdgeStyle={&quot;curved&quot;:0,&quot;rounded&quot;:0};participant=umlActor;" vertex="1" parent="1">
          <mxGeometry x="20" y="970" width="20" height="450" as="geometry" />
        </mxCell>
        <mxCell id="-OGjeIsqo9JkBF1w5ieS-260" value="" style="html=1;whiteSpace=wrap;" vertex="1" parent="1">
          <mxGeometry x="20" y="1020" width="20" height="350" as="geometry" />
        </mxCell>
        <mxCell id="-OGjeIsqo9JkBF1w5ieS-261" value="&lt;font style=&quot;font-size: 4px;&quot;&gt;changeMeeting(Id, MeetingChangeRequest)&lt;/font&gt;" style="html=1;verticalAlign=bottom;endArrow=block;curved=0;rounded=0;" edge="1" parent="1">
          <mxGeometry width="80" relative="1" as="geometry">
            <mxPoint x="40" y="1030" as="sourcePoint" />
            <mxPoint x="120" y="1030" as="targetPoint" />
          </mxGeometry>
        </mxCell>
        <mxCell id="-OGjeIsqo9JkBF1w5ieS-262" value="&lt;font style=&quot;font-size: 11px;&quot;&gt;:UserController&lt;/font&gt;" style="shape=umlLifeline;perimeter=lifelinePerimeter;whiteSpace=wrap;html=1;container=1;dropTarget=0;collapsible=0;recursiveResize=0;outlineConnect=0;portConstraint=eastwest;newEdgeStyle={&quot;curved&quot;:0,&quot;rounded&quot;:0};" vertex="1" parent="1">
          <mxGeometry x="80" y="970" width="100" height="450" as="geometry" />
        </mxCell>
        <mxCell id="-OGjeIsqo9JkBF1w5ieS-263" value="" style="html=1;whiteSpace=wrap;" vertex="1" parent="1">
          <mxGeometry x="120" y="1030" width="20" height="340" as="geometry" />
        </mxCell>
        <mxCell id="-OGjeIsqo9JkBF1w5ieS-264" value="&lt;font style=&quot;font-size: 11px;&quot;&gt;:UserService&lt;/font&gt;" style="shape=umlLifeline;perimeter=lifelinePerimeter;whiteSpace=wrap;html=1;container=1;dropTarget=0;collapsible=0;recursiveResize=0;outlineConnect=0;portConstraint=eastwest;newEdgeStyle={&quot;curved&quot;:0,&quot;rounded&quot;:0};" vertex="1" parent="1">
          <mxGeometry x="190" y="970" width="100" height="450" as="geometry" />
        </mxCell>
        <mxCell id="-OGjeIsqo9JkBF1w5ieS-265" value="&lt;font style=&quot;font-size: 11px;&quot;&gt;:UserRepository&lt;/font&gt;" style="shape=umlLifeline;perimeter=lifelinePerimeter;whiteSpace=wrap;html=1;container=1;dropTarget=0;collapsible=0;recursiveResize=0;outlineConnect=0;portConstraint=eastwest;newEdgeStyle={&quot;curved&quot;:0,&quot;rounded&quot;:0};" vertex="1" parent="1">
          <mxGeometry x="410" y="970" width="100" height="450" as="geometry" />
        </mxCell>
        <mxCell id="-OGjeIsqo9JkBF1w5ieS-266" value="" style="html=1;whiteSpace=wrap;" vertex="1" parent="1">
          <mxGeometry x="230" y="1090" width="20" height="280" as="geometry" />
        </mxCell>
        <mxCell id="-OGjeIsqo9JkBF1w5ieS-268" value="" style="html=1;whiteSpace=wrap;" vertex="1" parent="1">
          <mxGeometry x="450" y="1340" width="20" height="30" as="geometry" />
        </mxCell>
        <mxCell id="-OGjeIsqo9JkBF1w5ieS-269" value="" style="endArrow=open;dashed=1;endFill=0;endSize=12;html=1;rounded=0;exitX=0;exitY=1;exitDx=0;exitDy=0;entryX=1;entryY=1;entryDx=0;entryDy=0;" edge="1" parent="1">
          <mxGeometry width="160" relative="1" as="geometry">
            <mxPoint x="450" y="1370.0000000000002" as="sourcePoint" />
            <mxPoint x="250" y="1370.0000000000002" as="targetPoint" />
            <Array as="points">
              <mxPoint x="355" y="1370" />
            </Array>
          </mxGeometry>
        </mxCell>
        <mxCell id="-OGjeIsqo9JkBF1w5ieS-270" value="" style="html=1;verticalAlign=bottom;endArrow=block;curved=0;rounded=0;entryX=0;entryY=0;entryDx=0;entryDy=0;exitX=0.986;exitY=0.893;exitDx=0;exitDy=0;exitPerimeter=0;" edge="1" parent="1" source="-OGjeIsqo9JkBF1w5ieS-266" target="-OGjeIsqo9JkBF1w5ieS-268">
          <mxGeometry width="80" relative="1" as="geometry">
            <mxPoint x="249.33999999999992" y="1338.3000000000002" as="sourcePoint" />
            <mxPoint x="330" y="1245" as="targetPoint" />
          </mxGeometry>
        </mxCell>
        <mxCell id="-OGjeIsqo9JkBF1w5ieS-271" value="&lt;font style=&quot;font-size: 4px;&quot;&gt;save(user)&lt;/font&gt;" style="text;html=1;align=center;verticalAlign=middle;resizable=0;points=[];autosize=1;strokeColor=none;fillColor=none;" vertex="1" parent="1">
          <mxGeometry x="325" y="1315" width="40" height="30" as="geometry" />
        </mxCell>
        <mxCell id="-OGjeIsqo9JkBF1w5ieS-272" value="" style="endArrow=open;dashed=1;endFill=0;endSize=12;html=1;rounded=0;entryX=1;entryY=1;entryDx=0;entryDy=0;" edge="1" parent="1">
          <mxGeometry width="160" relative="1" as="geometry">
            <mxPoint x="230" y="1370" as="sourcePoint" />
            <mxPoint x="140" y="1370" as="targetPoint" />
          </mxGeometry>
        </mxCell>
        <mxCell id="-OGjeIsqo9JkBF1w5ieS-273" value="" style="endArrow=open;dashed=1;endFill=0;endSize=12;html=1;rounded=0;entryX=1;entryY=1;entryDx=0;entryDy=0;" edge="1" parent="1">
          <mxGeometry width="160" relative="1" as="geometry">
            <mxPoint x="120" y="1370.44" as="sourcePoint" />
            <mxPoint x="40" y="1370" as="targetPoint" />
          </mxGeometry>
        </mxCell>
        <mxCell id="-OGjeIsqo9JkBF1w5ieS-274" value="PUT" style="text;html=1;align=center;verticalAlign=middle;resizable=0;points=[];autosize=1;strokeColor=none;fillColor=none;" vertex="1" parent="1">
          <mxGeometry x="15" y="940" width="50" height="30" as="geometry" />
        </mxCell>
        <mxCell id="-OGjeIsqo9JkBF1w5ieS-275" value="" style="html=1;whiteSpace=wrap;" vertex="1" parent="1">
          <mxGeometry x="450" y="1175" width="20" height="25" as="geometry" />
        </mxCell>
        <mxCell id="-OGjeIsqo9JkBF1w5ieS-276" value="" style="html=1;verticalAlign=bottom;endArrow=block;curved=0;rounded=0;entryX=0;entryY=0;entryDx=0;entryDy=0;" edge="1" parent="1" target="-OGjeIsqo9JkBF1w5ieS-275">
          <mxGeometry width="80" relative="1" as="geometry">
            <mxPoint x="250" y="1175" as="sourcePoint" />
            <mxPoint x="330" y="1175" as="targetPoint" />
          </mxGeometry>
        </mxCell>
        <mxCell id="-OGjeIsqo9JkBF1w5ieS-277" value="&lt;font style=&quot;font-size: 4px;&quot;&gt;findById(uuid)&lt;/font&gt;" style="text;html=1;align=center;verticalAlign=middle;resizable=0;points=[];autosize=1;strokeColor=none;fillColor=none;" vertex="1" parent="1">
          <mxGeometry x="320" y="1150" width="50" height="30" as="geometry" />
        </mxCell>
        <mxCell id="-OGjeIsqo9JkBF1w5ieS-278" value="&lt;font style=&quot;font-size: 4px;&quot;&gt;user=Optional&amp;lt;UserEntity&amp;gt;.get()&lt;/font&gt;" style="text;html=1;align=center;verticalAlign=middle;resizable=0;points=[];autosize=1;strokeColor=none;fillColor=none;" vertex="1" parent="1">
          <mxGeometry x="310" y="1175" width="80" height="30" as="geometry" />
        </mxCell>
        <mxCell id="-OGjeIsqo9JkBF1w5ieS-279" value="" style="endArrow=open;dashed=1;endFill=0;endSize=12;html=1;rounded=0;exitX=0;exitY=1;exitDx=0;exitDy=0;entryX=1;entryY=0.092;entryDx=0;entryDy=0;entryPerimeter=0;" edge="1" parent="1" source="-OGjeIsqo9JkBF1w5ieS-275">
          <mxGeometry width="160" relative="1" as="geometry">
            <mxPoint x="450" y="1200" as="sourcePoint" />
            <mxPoint x="250" y="1200.3600000000001" as="targetPoint" />
          </mxGeometry>
        </mxCell>
        <mxCell id="-OGjeIsqo9JkBF1w5ieS-280" value="" style="rounded=0;whiteSpace=wrap;html=1;" vertex="1" parent="1">
          <mxGeometry x="245" y="1215" width="15" height="30" as="geometry" />
        </mxCell>
        <mxCell id="-OGjeIsqo9JkBF1w5ieS-281" value="" style="html=1;verticalAlign=bottom;endArrow=block;curved=1;rounded=0;exitX=0.967;exitY=0.114;exitDx=0;exitDy=0;exitPerimeter=0;entryX=1;entryY=0.25;entryDx=0;entryDy=0;" edge="1" parent="1">
          <mxGeometry width="80" relative="1" as="geometry">
            <mxPoint x="249.33999999999992" y="1207.62" as="sourcePoint" />
            <mxPoint x="260" y="1222.5" as="targetPoint" />
            <Array as="points">
              <mxPoint x="295" y="1220" />
            </Array>
          </mxGeometry>
        </mxCell>
        <mxCell id="-OGjeIsqo9JkBF1w5ieS-282" value="" style="endArrow=open;dashed=1;endFill=0;endSize=12;html=1;rounded=0;exitX=1;exitY=0.75;exitDx=0;exitDy=0;entryX=0.95;entryY=0.28;entryDx=0;entryDy=0;curved=1;entryPerimeter=0;" edge="1" parent="1">
          <mxGeometry width="160" relative="1" as="geometry">
            <mxPoint x="260" y="1237.4999999999998" as="sourcePoint" />
            <mxPoint x="249" y="1262.4" as="targetPoint" />
            <Array as="points">
              <mxPoint x="275" y="1250" />
            </Array>
          </mxGeometry>
        </mxCell>
        <mxCell id="-OGjeIsqo9JkBF1w5ieS-283" value="" style="rounded=0;whiteSpace=wrap;html=1;" vertex="1" parent="1">
          <mxGeometry x="245" y="1280" width="15" height="30" as="geometry" />
        </mxCell>
        <mxCell id="-OGjeIsqo9JkBF1w5ieS-284" value="" style="html=1;verticalAlign=bottom;endArrow=block;curved=1;rounded=0;exitX=1;exitY=0.303;exitDx=0;exitDy=0;exitPerimeter=0;entryX=1;entryY=0.25;entryDx=0;entryDy=0;" edge="1" parent="1">
          <mxGeometry width="80" relative="1" as="geometry">
            <mxPoint x="250" y="1269.9900000000002" as="sourcePoint" />
            <mxPoint x="260" y="1289.5" as="targetPoint" />
            <Array as="points">
              <mxPoint x="305" y="1264" />
            </Array>
          </mxGeometry>
        </mxCell>
        <mxCell id="-OGjeIsqo9JkBF1w5ieS-285" value="" style="endArrow=open;dashed=1;endFill=0;endSize=12;html=1;rounded=0;exitX=1;exitY=0.75;exitDx=0;exitDy=0;entryX=0.967;entryY=0.46;entryDx=0;entryDy=0;curved=1;entryPerimeter=0;" edge="1" parent="1">
          <mxGeometry width="160" relative="1" as="geometry">
            <mxPoint x="260" y="1304.5" as="sourcePoint" />
            <mxPoint x="249.33999999999992" y="1321.8" as="targetPoint" />
            <Array as="points">
              <mxPoint x="275" y="1317" />
            </Array>
          </mxGeometry>
        </mxCell>
        <mxCell id="-OGjeIsqo9JkBF1w5ieS-286" value="&lt;font style=&quot;font-size: 7px;&quot;&gt;*&lt;/font&gt;" style="text;html=1;align=center;verticalAlign=middle;resizable=0;points=[];autosize=1;strokeColor=none;fillColor=none;" vertex="1" parent="1">
          <mxGeometry x="335" y="1350" width="30" height="30" as="geometry" />
        </mxCell>
        <mxCell id="-OGjeIsqo9JkBF1w5ieS-287" value="&lt;font style=&quot;font-size: 4px;&quot;&gt;user.setModules(updateRequest.modules)&lt;/font&gt;" style="text;html=1;align=center;verticalAlign=middle;resizable=0;points=[];autosize=1;strokeColor=none;fillColor=none;" vertex="1" parent="1">
          <mxGeometry x="270" y="1200" width="100" height="30" as="geometry" />
        </mxCell>
        <mxCell id="-OGjeIsqo9JkBF1w5ieS-288" value="&lt;font style=&quot;font-size: 4px;&quot;&gt;user.setUsername(updateRequest.username)&lt;/font&gt;" style="text;html=1;align=center;verticalAlign=middle;resizable=0;points=[];autosize=1;strokeColor=none;fillColor=none;" vertex="1" parent="1">
          <mxGeometry x="275" y="1260" width="100" height="30" as="geometry" />
        </mxCell>
        <mxCell id="-OGjeIsqo9JkBF1w5ieS-289" value="&lt;font style=&quot;font-size: 7px;&quot;&gt;*&lt;/font&gt;" style="text;html=1;align=center;verticalAlign=middle;resizable=0;points=[];autosize=1;strokeColor=none;fillColor=none;" vertex="1" parent="1">
          <mxGeometry x="175" y="1360" width="30" height="30" as="geometry" />
        </mxCell>
        <mxCell id="-OGjeIsqo9JkBF1w5ieS-290" value="&lt;font style=&quot;font-size: 4px;&quot;&gt;ResponseEntity(HttpStatus.OK)&lt;/font&gt;" style="text;html=1;align=center;verticalAlign=middle;resizable=0;points=[];autosize=1;strokeColor=none;fillColor=none;" vertex="1" parent="1">
          <mxGeometry x="45" y="1370.44" width="80" height="30" as="geometry" />
        </mxCell>
        <mxCell id="-OGjeIsqo9JkBF1w5ieS-291" value="" style="html=1;verticalAlign=bottom;endArrow=block;curved=1;rounded=0;entryX=1;entryY=0;entryDx=0;entryDy=0;" edge="1" parent="1" target="-OGjeIsqo9JkBF1w5ieS-292">
          <mxGeometry width="80" relative="1" as="geometry">
            <mxPoint x="140" y="560" as="sourcePoint" />
            <mxPoint x="220" y="560" as="targetPoint" />
            <Array as="points">
              <mxPoint x="160" y="560" />
              <mxPoint x="180" y="570" />
            </Array>
          </mxGeometry>
        </mxCell>
        <mxCell id="-OGjeIsqo9JkBF1w5ieS-292" value="" style="html=1;whiteSpace=wrap;" vertex="1" parent="1">
          <mxGeometry x="130" y="570" width="20" height="20" as="geometry" />
        </mxCell>
        <mxCell id="-OGjeIsqo9JkBF1w5ieS-293" value="" style="endArrow=open;dashed=1;endFill=0;endSize=12;html=1;rounded=0;exitX=1;exitY=0.75;exitDx=0;exitDy=0;entryX=1;entryY=1;entryDx=0;entryDy=0;curved=1;" edge="1" parent="1" source="-OGjeIsqo9JkBF1w5ieS-292">
          <mxGeometry width="160" relative="1" as="geometry">
            <mxPoint x="10" y="640" as="sourcePoint" />
            <mxPoint x="140" y="600" as="targetPoint" />
            <Array as="points">
              <mxPoint x="180" y="590" />
            </Array>
          </mxGeometry>
        </mxCell>
        <mxCell id="-OGjeIsqo9JkBF1w5ieS-294" value="&lt;div style=&quot;line-height: 30%;&quot;&gt;&lt;font style=&quot;line-height: 30%; font-size: 4px;&quot;&gt;HttpServletRequest&lt;/font&gt;&lt;div&gt;&lt;font style=&quot;line-height: 30%; font-size: 4px;&quot;&gt;.getUserPrincipal()&lt;/font&gt;&lt;/div&gt;&lt;div&gt;&lt;font style=&quot;line-height: 30%; font-size: 4px;&quot;&gt;.getName()&lt;/font&gt;&lt;/div&gt;&lt;/div&gt;" style="text;html=1;align=center;verticalAlign=middle;resizable=0;points=[];autosize=1;strokeColor=none;fillColor=none;" vertex="1" parent="1">
          <mxGeometry x="145" y="540" width="60" height="30" as="geometry" />
        </mxCell>
        <mxCell id="-OGjeIsqo9JkBF1w5ieS-295" value="&lt;font style=&quot;font-size: 4px;&quot;&gt;uuid&lt;/font&gt;" style="text;html=1;align=center;verticalAlign=middle;resizable=0;points=[];autosize=1;strokeColor=none;fillColor=none;" vertex="1" parent="1">
          <mxGeometry x="155" y="570" width="30" height="30" as="geometry" />
        </mxCell>
        <mxCell id="-OGjeIsqo9JkBF1w5ieS-296" value="" style="html=1;verticalAlign=bottom;endArrow=block;curved=0;rounded=0;entryX=0;entryY=0;entryDx=0;entryDy=0;exitX=1.016;exitY=0.227;exitDx=0;exitDy=0;exitPerimeter=0;" edge="1" parent="1" source="-OGjeIsqo9JkBF1w5ieS-240" target="-OGjeIsqo9JkBF1w5ieS-244">
          <mxGeometry width="80" relative="1" as="geometry">
            <mxPoint x="140" y="614.87" as="sourcePoint" />
            <mxPoint x="220" y="614.87" as="targetPoint" />
            <mxPoint as="offset" />
          </mxGeometry>
        </mxCell>
        <mxCell id="-OGjeIsqo9JkBF1w5ieS-297" value="&lt;font style=&quot;font-size: 4px;&quot;&gt;get(uuid, null)&lt;/font&gt;" style="text;html=1;align=center;verticalAlign=middle;resizable=0;points=[];autosize=1;strokeColor=none;fillColor=none;" vertex="1" parent="1">
          <mxGeometry x="155" y="590" width="50" height="30" as="geometry" />
        </mxCell>
        <mxCell id="-OGjeIsqo9JkBF1w5ieS-298" value="POST" style="text;html=1;align=center;verticalAlign=middle;resizable=0;points=[];autosize=1;strokeColor=none;fillColor=none;" vertex="1" parent="1">
          <mxGeometry x="15" y="28" width="60" height="30" as="geometry" />
        </mxCell>
        <mxCell id="-OGjeIsqo9JkBF1w5ieS-299" value="" style="html=1;verticalAlign=bottom;endArrow=block;curved=1;rounded=0;entryX=1;entryY=0;entryDx=0;entryDy=0;" edge="1" parent="1" target="-OGjeIsqo9JkBF1w5ieS-300">
          <mxGeometry width="80" relative="1" as="geometry">
            <mxPoint x="135" y="135" as="sourcePoint" />
            <mxPoint x="215" y="135" as="targetPoint" />
            <Array as="points">
              <mxPoint x="155" y="135" />
              <mxPoint x="175" y="145" />
            </Array>
          </mxGeometry>
        </mxCell>
        <mxCell id="-OGjeIsqo9JkBF1w5ieS-300" value="" style="html=1;whiteSpace=wrap;" vertex="1" parent="1">
          <mxGeometry x="125" y="145" width="20" height="20" as="geometry" />
        </mxCell>
        <mxCell id="-OGjeIsqo9JkBF1w5ieS-301" value="" style="endArrow=open;dashed=1;endFill=0;endSize=12;html=1;rounded=0;exitX=1;exitY=0.75;exitDx=0;exitDy=0;entryX=1;entryY=1;entryDx=0;entryDy=0;curved=1;" edge="1" parent="1" source="-OGjeIsqo9JkBF1w5ieS-300">
          <mxGeometry width="160" relative="1" as="geometry">
            <mxPoint x="5" y="215" as="sourcePoint" />
            <mxPoint x="135" y="175" as="targetPoint" />
            <Array as="points">
              <mxPoint x="175" y="165" />
            </Array>
          </mxGeometry>
        </mxCell>
        <mxCell id="-OGjeIsqo9JkBF1w5ieS-302" value="&lt;div style=&quot;line-height: 30%;&quot;&gt;&lt;font style=&quot;line-height: 30%; font-size: 4px;&quot;&gt;HttpServletRequest&lt;/font&gt;&lt;div&gt;&lt;font style=&quot;line-height: 30%; font-size: 4px;&quot;&gt;.getUserPrincipal()&lt;/font&gt;&lt;/div&gt;&lt;div&gt;&lt;font style=&quot;line-height: 30%; font-size: 4px;&quot;&gt;.getName()&lt;/font&gt;&lt;/div&gt;&lt;/div&gt;" style="text;html=1;align=center;verticalAlign=middle;resizable=0;points=[];autosize=1;strokeColor=none;fillColor=none;" vertex="1" parent="1">
          <mxGeometry x="140" y="115" width="60" height="30" as="geometry" />
        </mxCell>
        <mxCell id="-OGjeIsqo9JkBF1w5ieS-303" value="&lt;font style=&quot;font-size: 4px;&quot;&gt;userUUID&lt;/font&gt;" style="text;html=1;align=center;verticalAlign=middle;resizable=0;points=[];autosize=1;strokeColor=none;fillColor=none;" vertex="1" parent="1">
          <mxGeometry x="150" y="145" width="40" height="30" as="geometry" />
        </mxCell>
        <mxCell id="-OGjeIsqo9JkBF1w5ieS-306" value="" style="html=1;verticalAlign=bottom;endArrow=block;curved=0;rounded=0;entryX=0;entryY=0;entryDx=0;entryDy=0;" edge="1" parent="1">
          <mxGeometry width="80" relative="1" as="geometry">
            <mxPoint x="135" y="190" as="sourcePoint" />
            <mxPoint x="225" y="190" as="targetPoint" />
          </mxGeometry>
        </mxCell>
        <mxCell id="-OGjeIsqo9JkBF1w5ieS-307" value="&lt;font style=&quot;font-size: 4px;&quot;&gt;create(useraccountSetupRequest, userUUID)&lt;/font&gt;" style="text;html=1;align=center;verticalAlign=middle;resizable=0;points=[];autosize=1;strokeColor=none;fillColor=none;" vertex="1" parent="1">
          <mxGeometry x="130" y="168" width="100" height="30" as="geometry" />
        </mxCell>
        <mxCell id="-OGjeIsqo9JkBF1w5ieS-311" value="&lt;font style=&quot;font-size: 4px;&quot;&gt;save(user)&lt;/font&gt;" style="html=1;verticalAlign=bottom;endArrow=block;curved=0;rounded=0;entryX=0;entryY=0;entryDx=0;entryDy=0;" edge="1" parent="1" target="-OGjeIsqo9JkBF1w5ieS-226">
          <mxGeometry width="80" relative="1" as="geometry">
            <mxPoint x="245" y="350" as="sourcePoint" />
            <mxPoint x="400" y="350" as="targetPoint" />
          </mxGeometry>
        </mxCell>
        <mxCell id="-OGjeIsqo9JkBF1w5ieS-312" value="&lt;font style=&quot;font-size: 6px;&quot;&gt;*&lt;/font&gt;" style="text;whiteSpace=wrap;html=1;" vertex="1" parent="1">
          <mxGeometry x="175" y="390" width="40" height="40" as="geometry" />
        </mxCell>
        <mxCell id="-OGjeIsqo9JkBF1w5ieS-323" value=":UUIDService" style="shape=umlLifeline;perimeter=lifelinePerimeter;whiteSpace=wrap;html=1;container=1;dropTarget=0;collapsible=0;recursiveResize=0;outlineConnect=0;portConstraint=eastwest;newEdgeStyle={&quot;curved&quot;:0,&quot;rounded&quot;:0};" vertex="1" parent="1">
          <mxGeometry x="515" y="70" width="100" height="360" as="geometry" />
        </mxCell>
        <mxCell id="-OGjeIsqo9JkBF1w5ieS-324" value="" style="endArrow=block;endFill=1;endSize=12;html=1;rounded=0;entryX=0;entryY=0;entryDx=0;entryDy=0;" edge="1" parent="1" target="-OGjeIsqo9JkBF1w5ieS-325">
          <mxGeometry width="160" relative="1" as="geometry">
            <mxPoint x="245" y="198" as="sourcePoint" />
            <mxPoint x="405" y="198" as="targetPoint" />
          </mxGeometry>
        </mxCell>
        <mxCell id="-OGjeIsqo9JkBF1w5ieS-325" value="" style="html=1;whiteSpace=wrap;" vertex="1" parent="1">
          <mxGeometry x="555" y="198" width="20" height="22" as="geometry" />
        </mxCell>
        <mxCell id="-OGjeIsqo9JkBF1w5ieS-326" value="&lt;font style=&quot;font-size: 4px;&quot;&gt;parseUUID(userUUID)&lt;/font&gt;" style="text;html=1;align=center;verticalAlign=middle;resizable=0;points=[];autosize=1;strokeColor=none;fillColor=none;" vertex="1" parent="1">
          <mxGeometry x="360" y="175" width="60" height="30" as="geometry" />
        </mxCell>
        <mxCell id="-OGjeIsqo9JkBF1w5ieS-327" value="" style="endArrow=open;dashed=1;endFill=0;endSize=12;html=1;rounded=0;exitX=0;exitY=1;exitDx=0;exitDy=0;entryX=1;entryY=0.137;entryDx=0;entryDy=0;entryPerimeter=0;" edge="1" parent="1" target="-OGjeIsqo9JkBF1w5ieS-216">
          <mxGeometry width="160" relative="1" as="geometry">
            <mxPoint x="555" y="220.83999999999992" as="sourcePoint" />
            <mxPoint x="464.2" y="220" as="targetPoint" />
          </mxGeometry>
        </mxCell>
        <mxCell id="-OGjeIsqo9JkBF1w5ieS-328" value="&lt;font style=&quot;font-size: 4px;&quot;&gt;uuid=parseUUID(userUUID)&lt;/font&gt;" style="text;html=1;align=center;verticalAlign=middle;resizable=0;points=[];autosize=1;strokeColor=none;fillColor=none;" vertex="1" parent="1">
          <mxGeometry x="360" y="198" width="70" height="30" as="geometry" />
        </mxCell>
        <mxCell id="-OGjeIsqo9JkBF1w5ieS-330" value="" style="html=1;verticalAlign=bottom;endArrow=block;curved=1;rounded=0;entryX=1;entryY=0;entryDx=0;entryDy=0;" edge="1" parent="1" target="-OGjeIsqo9JkBF1w5ieS-331">
          <mxGeometry width="80" relative="1" as="geometry">
            <mxPoint x="245" y="302.5" as="sourcePoint" />
            <mxPoint x="325" y="302.5" as="targetPoint" />
            <Array as="points">
              <mxPoint x="265" y="302.5" />
              <mxPoint x="285" y="312.5" />
            </Array>
          </mxGeometry>
        </mxCell>
        <mxCell id="-OGjeIsqo9JkBF1w5ieS-331" value="" style="html=1;whiteSpace=wrap;" vertex="1" parent="1">
          <mxGeometry x="235" y="312.5" width="20" height="20" as="geometry" />
        </mxCell>
        <mxCell id="-OGjeIsqo9JkBF1w5ieS-332" value="" style="endArrow=open;dashed=1;endFill=0;endSize=12;html=1;rounded=0;exitX=1;exitY=0.75;exitDx=0;exitDy=0;entryX=1;entryY=1;entryDx=0;entryDy=0;curved=1;" edge="1" parent="1" source="-OGjeIsqo9JkBF1w5ieS-331">
          <mxGeometry width="160" relative="1" as="geometry">
            <mxPoint x="115" y="382.5" as="sourcePoint" />
            <mxPoint x="245" y="342.5" as="targetPoint" />
            <Array as="points">
              <mxPoint x="285" y="332.5" />
            </Array>
          </mxGeometry>
        </mxCell>
        <mxCell id="-OGjeIsqo9JkBF1w5ieS-333" value="&lt;font style=&quot;font-size: 4px;&quot;&gt;user.setUuid(uuid)&lt;/font&gt;" style="text;html=1;align=center;verticalAlign=middle;resizable=0;points=[];autosize=1;strokeColor=none;fillColor=none;" vertex="1" parent="1">
          <mxGeometry x="265" y="290.5" width="60" height="30" as="geometry" />
        </mxCell>
        <mxCell id="-OGjeIsqo9JkBF1w5ieS-335" value=":UUIDService" style="shape=umlLifeline;perimeter=lifelinePerimeter;whiteSpace=wrap;html=1;container=1;dropTarget=0;collapsible=0;recursiveResize=0;outlineConnect=0;portConstraint=eastwest;newEdgeStyle={&quot;curved&quot;:0,&quot;rounded&quot;:0};" vertex="1" parent="1">
          <mxGeometry x="525" y="490" width="100" height="430" as="geometry" />
        </mxCell>
        <mxCell id="-OGjeIsqo9JkBF1w5ieS-336" value="" style="endArrow=blockThin;endFill=1;endSize=12;html=1;rounded=0;entryX=0;entryY=0;entryDx=0;entryDy=0;" edge="1" parent="1" target="-OGjeIsqo9JkBF1w5ieS-337">
          <mxGeometry width="160" relative="1" as="geometry">
            <mxPoint x="250" y="620" as="sourcePoint" />
            <mxPoint x="405" y="620" as="targetPoint" />
          </mxGeometry>
        </mxCell>
        <mxCell id="-OGjeIsqo9JkBF1w5ieS-337" value="" style="html=1;whiteSpace=wrap;" vertex="1" parent="1">
          <mxGeometry x="565" y="620" width="20" height="55" as="geometry" />
        </mxCell>
        <mxCell id="-OGjeIsqo9JkBF1w5ieS-338" value="" style="endArrow=open;dashed=1;endFill=0;endSize=12;html=1;rounded=0;exitX=0;exitY=1;exitDx=0;exitDy=0;entryX=1.013;entryY=0.315;entryDx=0;entryDy=0;entryPerimeter=0;" edge="1" parent="1" target="-OGjeIsqo9JkBF1w5ieS-244">
          <mxGeometry width="160" relative="1" as="geometry">
            <mxPoint x="565" y="675" as="sourcePoint" />
            <mxPoint x="475" y="675" as="targetPoint" />
          </mxGeometry>
        </mxCell>
        <mxCell id="-OGjeIsqo9JkBF1w5ieS-339" value="&lt;font style=&quot;font-size: 4px;&quot;&gt;userUUID=&lt;font&gt;parseUUID(userUUID)&lt;/font&gt;&lt;/font&gt;" style="text;html=1;align=center;verticalAlign=middle;resizable=0;points=[];autosize=1;strokeColor=none;fillColor=none;" vertex="1" parent="1">
          <mxGeometry x="365" y="648" width="80" height="30" as="geometry" />
        </mxCell>
        <mxCell id="-OGjeIsqo9JkBF1w5ieS-340" value="&lt;font style=&quot;font-size: 4px;&quot;&gt;parseUUID(userUUID)&lt;/font&gt;" style="text;html=1;align=center;verticalAlign=middle;resizable=0;points=[];autosize=1;strokeColor=none;fillColor=none;" vertex="1" parent="1">
          <mxGeometry x="365" y="598" width="60" height="30" as="geometry" />
        </mxCell>
        <mxCell id="-OGjeIsqo9JkBF1w5ieS-341" value=":UUIDService" style="shape=umlLifeline;perimeter=lifelinePerimeter;whiteSpace=wrap;html=1;container=1;dropTarget=0;collapsible=0;recursiveResize=0;outlineConnect=0;portConstraint=eastwest;newEdgeStyle={&quot;curved&quot;:0,&quot;rounded&quot;:0};" vertex="1" parent="1">
          <mxGeometry x="530" y="970" width="100" height="450" as="geometry" />
        </mxCell>
        <mxCell id="-OGjeIsqo9JkBF1w5ieS-342" value="" style="endArrow=blockThin;endFill=1;endSize=12;html=1;rounded=0;entryX=0;entryY=0;entryDx=0;entryDy=0;" edge="1" parent="1" target="-OGjeIsqo9JkBF1w5ieS-343">
          <mxGeometry width="160" relative="1" as="geometry">
            <mxPoint x="250" y="1100" as="sourcePoint" />
            <mxPoint x="400" y="1100" as="targetPoint" />
          </mxGeometry>
        </mxCell>
        <mxCell id="-OGjeIsqo9JkBF1w5ieS-343" value="" style="html=1;whiteSpace=wrap;" vertex="1" parent="1">
          <mxGeometry x="570" y="1100" width="20" height="25" as="geometry" />
        </mxCell>
        <mxCell id="-OGjeIsqo9JkBF1w5ieS-344" value="" style="endArrow=open;dashed=1;endFill=0;endSize=12;html=1;rounded=0;exitX=0;exitY=1;exitDx=0;exitDy=0;entryX=0.983;entryY=0.125;entryDx=0;entryDy=0;entryPerimeter=0;" edge="1" parent="1" target="-OGjeIsqo9JkBF1w5ieS-266">
          <mxGeometry width="160" relative="1" as="geometry">
            <mxPoint x="570" y="1125" as="sourcePoint" />
            <mxPoint x="370" y="1125.3600000000001" as="targetPoint" />
          </mxGeometry>
        </mxCell>
        <mxCell id="-OGjeIsqo9JkBF1w5ieS-345" value="&lt;font style=&quot;font-size: 4px;&quot;&gt;parseUUID(targetUUID)&lt;/font&gt;" style="text;html=1;align=center;verticalAlign=middle;resizable=0;points=[];autosize=1;strokeColor=none;fillColor=none;" vertex="1" parent="1">
          <mxGeometry x="350" y="1080" width="70" height="30" as="geometry" />
        </mxCell>
        <mxCell id="-OGjeIsqo9JkBF1w5ieS-346" value="&lt;font style=&quot;font-size: 4px;&quot;&gt;uuid=parseUUID(targetUUID)&lt;/font&gt;" style="text;html=1;align=center;verticalAlign=middle;resizable=0;points=[];autosize=1;strokeColor=none;fillColor=none;" vertex="1" parent="1">
          <mxGeometry x="345" y="1100" width="80" height="30" as="geometry" />
        </mxCell>
        <mxCell id="-OGjeIsqo9JkBF1w5ieS-347" value="" style="html=1;verticalAlign=bottom;endArrow=block;curved=1;rounded=0;entryX=1;entryY=0;entryDx=0;entryDy=0;" edge="1" parent="1" target="-OGjeIsqo9JkBF1w5ieS-348">
          <mxGeometry width="80" relative="1" as="geometry">
            <mxPoint x="140" y="1040" as="sourcePoint" />
            <mxPoint x="220" y="1040" as="targetPoint" />
            <Array as="points">
              <mxPoint x="160" y="1040" />
              <mxPoint x="180" y="1050" />
            </Array>
          </mxGeometry>
        </mxCell>
        <mxCell id="-OGjeIsqo9JkBF1w5ieS-348" value="" style="html=1;whiteSpace=wrap;" vertex="1" parent="1">
          <mxGeometry x="130" y="1050" width="20" height="20" as="geometry" />
        </mxCell>
        <mxCell id="-OGjeIsqo9JkBF1w5ieS-349" value="" style="endArrow=open;dashed=1;endFill=0;endSize=12;html=1;rounded=0;exitX=1;exitY=0.75;exitDx=0;exitDy=0;entryX=1;entryY=1;entryDx=0;entryDy=0;curved=1;" edge="1" parent="1" source="-OGjeIsqo9JkBF1w5ieS-348">
          <mxGeometry width="160" relative="1" as="geometry">
            <mxPoint x="10" y="1120" as="sourcePoint" />
            <mxPoint x="140" y="1080" as="targetPoint" />
            <Array as="points">
              <mxPoint x="180" y="1070" />
            </Array>
          </mxGeometry>
        </mxCell>
        <mxCell id="-OGjeIsqo9JkBF1w5ieS-350" value="&lt;div style=&quot;line-height: 30%;&quot;&gt;&lt;font style=&quot;line-height: 30%; font-size: 4px;&quot;&gt;HttpServletRequest&lt;/font&gt;&lt;div&gt;&lt;font style=&quot;line-height: 30%; font-size: 4px;&quot;&gt;.getUserPrincipal()&lt;/font&gt;&lt;/div&gt;&lt;div&gt;&lt;font style=&quot;line-height: 30%; font-size: 4px;&quot;&gt;.getName()&lt;/font&gt;&lt;/div&gt;&lt;/div&gt;" style="text;html=1;align=center;verticalAlign=middle;resizable=0;points=[];autosize=1;strokeColor=none;fillColor=none;" vertex="1" parent="1">
          <mxGeometry x="145" y="1020" width="60" height="30" as="geometry" />
        </mxCell>
        <mxCell id="-OGjeIsqo9JkBF1w5ieS-351" value="&lt;font style=&quot;font-size: 4px;&quot;&gt;userUUID&lt;/font&gt;" style="text;html=1;align=center;verticalAlign=middle;resizable=0;points=[];autosize=1;strokeColor=none;fillColor=none;" vertex="1" parent="1">
          <mxGeometry x="155" y="1050" width="40" height="30" as="geometry" />
        </mxCell>
        <mxCell id="-OGjeIsqo9JkBF1w5ieS-352" value="" style="html=1;verticalAlign=bottom;endArrow=block;curved=0;rounded=0;entryX=0;entryY=0;entryDx=0;entryDy=0;exitX=1.016;exitY=0.227;exitDx=0;exitDy=0;exitPerimeter=0;" edge="1" parent="1">
          <mxGeometry width="80" relative="1" as="geometry">
            <mxPoint x="140" y="1091" as="sourcePoint" />
            <mxPoint x="230" y="1090" as="targetPoint" />
            <mxPoint as="offset" />
          </mxGeometry>
        </mxCell>
        <mxCell id="-OGjeIsqo9JkBF1w5ieS-353" value="&lt;font style=&quot;font-size: 4px;&quot;&gt;updateModules(updateRequest, userUUID)&lt;/font&gt;" style="text;html=1;align=center;verticalAlign=middle;resizable=0;points=[];autosize=1;strokeColor=none;fillColor=none;" vertex="1" parent="1">
          <mxGeometry x="130" y="1070" width="100" height="30" as="geometry" />
        </mxCell>
        <mxCell id="-OGjeIsqo9JkBF1w5ieS-361" value="" style="shape=umlLifeline;perimeter=lifelinePerimeter;whiteSpace=wrap;html=1;container=1;dropTarget=0;collapsible=0;recursiveResize=0;outlineConnect=0;portConstraint=eastwest;newEdgeStyle={&quot;curved&quot;:0,&quot;rounded&quot;:0};participant=umlActor;" vertex="1" parent="1">
          <mxGeometry x="15" y="1470" width="20" height="300" as="geometry" />
        </mxCell>
        <mxCell id="-OGjeIsqo9JkBF1w5ieS-362" value="" style="html=1;whiteSpace=wrap;" vertex="1" parent="1">
          <mxGeometry x="15" y="1520" width="20" height="210" as="geometry" />
        </mxCell>
        <mxCell id="-OGjeIsqo9JkBF1w5ieS-363" value="&lt;font style=&quot;font-size: 4px;&quot;&gt;delete(HttpServletRequest, targetUuid)&lt;/font&gt;" style="html=1;verticalAlign=bottom;endArrow=block;curved=0;rounded=0;" edge="1" parent="1">
          <mxGeometry width="80" relative="1" as="geometry">
            <mxPoint x="35" y="1530" as="sourcePoint" />
            <mxPoint x="115" y="1530" as="targetPoint" />
            <mxPoint as="offset" />
          </mxGeometry>
        </mxCell>
        <mxCell id="-OGjeIsqo9JkBF1w5ieS-364" value="&lt;font style=&quot;font-size: 11px;&quot;&gt;:UserController&lt;/font&gt;" style="shape=umlLifeline;perimeter=lifelinePerimeter;whiteSpace=wrap;html=1;container=1;dropTarget=0;collapsible=0;recursiveResize=0;outlineConnect=0;portConstraint=eastwest;newEdgeStyle={&quot;curved&quot;:0,&quot;rounded&quot;:0};" vertex="1" parent="1">
          <mxGeometry x="75" y="1470" width="100" height="300" as="geometry" />
        </mxCell>
        <mxCell id="-OGjeIsqo9JkBF1w5ieS-365" value="" style="html=1;whiteSpace=wrap;" vertex="1" parent="1">
          <mxGeometry x="115" y="1530" width="20" height="200" as="geometry" />
        </mxCell>
        <mxCell id="-OGjeIsqo9JkBF1w5ieS-366" value="&lt;font style=&quot;font-size: 11px;&quot;&gt;:UserService&lt;/font&gt;" style="shape=umlLifeline;perimeter=lifelinePerimeter;whiteSpace=wrap;html=1;container=1;dropTarget=0;collapsible=0;recursiveResize=0;outlineConnect=0;portConstraint=eastwest;newEdgeStyle={&quot;curved&quot;:0,&quot;rounded&quot;:0};" vertex="1" parent="1">
          <mxGeometry x="185" y="1470" width="100" height="300" as="geometry" />
        </mxCell>
        <mxCell id="-OGjeIsqo9JkBF1w5ieS-367" value="&lt;font style=&quot;font-size: 11px;&quot;&gt;:UserMapper&lt;/font&gt;" style="shape=umlLifeline;perimeter=lifelinePerimeter;whiteSpace=wrap;html=1;container=1;dropTarget=0;collapsible=0;recursiveResize=0;outlineConnect=0;portConstraint=eastwest;newEdgeStyle={&quot;curved&quot;:0,&quot;rounded&quot;:0};" vertex="1" parent="1">
          <mxGeometry x="405" y="1470" width="100" height="300" as="geometry" />
        </mxCell>
        <mxCell id="-OGjeIsqo9JkBF1w5ieS-368" value="&lt;font style=&quot;font-size: 11px;&quot;&gt;:UserRepository&lt;/font&gt;" style="shape=umlLifeline;perimeter=lifelinePerimeter;whiteSpace=wrap;html=1;container=1;dropTarget=0;collapsible=0;recursiveResize=0;outlineConnect=0;portConstraint=eastwest;newEdgeStyle={&quot;curved&quot;:0,&quot;rounded&quot;:0};" vertex="1" parent="1">
          <mxGeometry x="295" y="1470" width="100" height="300" as="geometry" />
        </mxCell>
        <mxCell id="-OGjeIsqo9JkBF1w5ieS-369" value="" style="html=1;whiteSpace=wrap;" vertex="1" parent="1">
          <mxGeometry x="225" y="1590" width="20" height="140" as="geometry" />
        </mxCell>
        <mxCell id="-OGjeIsqo9JkBF1w5ieS-370" value="" style="html=1;whiteSpace=wrap;" vertex="1" parent="1">
          <mxGeometry x="335" y="1690" width="20" height="40" as="geometry" />
        </mxCell>
        <mxCell id="-OGjeIsqo9JkBF1w5ieS-371" value="&lt;div style=&quot;line-height: 60%;&quot;&gt;&lt;span style=&quot;font-size: 4px;&quot;&gt;deleteById(userUUID)&lt;/span&gt;&lt;/div&gt;" style="html=1;verticalAlign=bottom;endArrow=block;curved=0;rounded=0;entryX=0;entryY=0;entryDx=0;entryDy=0;" edge="1" parent="1">
          <mxGeometry width="80" relative="1" as="geometry">
            <mxPoint x="245" y="1690" as="sourcePoint" />
            <mxPoint x="335" y="1690" as="targetPoint" />
          </mxGeometry>
        </mxCell>
        <mxCell id="-OGjeIsqo9JkBF1w5ieS-372" value="" style="endArrow=open;dashed=1;endFill=0;endSize=12;html=1;rounded=0;exitX=0;exitY=1;exitDx=0;exitDy=0;entryX=1;entryY=1;entryDx=0;entryDy=0;" edge="1" parent="1" source="-OGjeIsqo9JkBF1w5ieS-370" target="-OGjeIsqo9JkBF1w5ieS-369">
          <mxGeometry width="160" relative="1" as="geometry">
            <mxPoint x="335" y="1640" as="sourcePoint" />
            <mxPoint x="250" y="1730" as="targetPoint" />
          </mxGeometry>
        </mxCell>
        <mxCell id="-OGjeIsqo9JkBF1w5ieS-373" value="*" style="text;html=1;align=center;verticalAlign=middle;resizable=0;points=[];autosize=1;strokeColor=none;fillColor=none;" vertex="1" parent="1">
          <mxGeometry x="275" y="1709" width="30" height="30" as="geometry" />
        </mxCell>
        <mxCell id="-OGjeIsqo9JkBF1w5ieS-378" value="" style="endArrow=open;dashed=1;endFill=0;endSize=12;html=1;rounded=0;entryX=1;entryY=1;entryDx=0;entryDy=0;" edge="1" parent="1" target="-OGjeIsqo9JkBF1w5ieS-365">
          <mxGeometry width="160" relative="1" as="geometry">
            <mxPoint x="230" y="1730" as="sourcePoint" />
            <mxPoint x="140" y="1730" as="targetPoint" />
          </mxGeometry>
        </mxCell>
        <mxCell id="-OGjeIsqo9JkBF1w5ieS-379" value="" style="endArrow=open;dashed=1;endFill=0;endSize=12;html=1;rounded=0;entryX=1;entryY=1;entryDx=0;entryDy=0;" edge="1" parent="1">
          <mxGeometry width="160" relative="1" as="geometry">
            <mxPoint x="115" y="1730" as="sourcePoint" />
            <mxPoint x="35" y="1729.56" as="targetPoint" />
          </mxGeometry>
        </mxCell>
        <mxCell id="-OGjeIsqo9JkBF1w5ieS-380" value="*" style="text;html=1;align=center;verticalAlign=middle;resizable=0;points=[];autosize=1;strokeColor=none;fillColor=none;" vertex="1" parent="1">
          <mxGeometry x="170" y="1709" width="30" height="30" as="geometry" />
        </mxCell>
        <mxCell id="-OGjeIsqo9JkBF1w5ieS-383" value="DELETE" style="text;html=1;align=center;verticalAlign=middle;resizable=0;points=[];autosize=1;strokeColor=none;fillColor=none;" vertex="1" parent="1">
          <mxGeometry y="1440" width="70" height="30" as="geometry" />
        </mxCell>
        <mxCell id="-OGjeIsqo9JkBF1w5ieS-384" value="" style="html=1;verticalAlign=bottom;endArrow=block;curved=1;rounded=0;entryX=1;entryY=0;entryDx=0;entryDy=0;" edge="1" parent="1" target="-OGjeIsqo9JkBF1w5ieS-385">
          <mxGeometry width="80" relative="1" as="geometry">
            <mxPoint x="135" y="1540" as="sourcePoint" />
            <mxPoint x="215" y="1540" as="targetPoint" />
            <Array as="points">
              <mxPoint x="155" y="1540" />
              <mxPoint x="175" y="1550" />
            </Array>
          </mxGeometry>
        </mxCell>
        <mxCell id="-OGjeIsqo9JkBF1w5ieS-385" value="" style="html=1;whiteSpace=wrap;" vertex="1" parent="1">
          <mxGeometry x="125" y="1550" width="20" height="20" as="geometry" />
        </mxCell>
        <mxCell id="-OGjeIsqo9JkBF1w5ieS-386" value="" style="endArrow=open;dashed=1;endFill=0;endSize=12;html=1;rounded=0;exitX=1;exitY=0.75;exitDx=0;exitDy=0;entryX=1;entryY=1;entryDx=0;entryDy=0;curved=1;" edge="1" parent="1" source="-OGjeIsqo9JkBF1w5ieS-385">
          <mxGeometry width="160" relative="1" as="geometry">
            <mxPoint x="5" y="1620" as="sourcePoint" />
            <mxPoint x="135" y="1580" as="targetPoint" />
            <Array as="points">
              <mxPoint x="175" y="1570" />
            </Array>
          </mxGeometry>
        </mxCell>
        <mxCell id="-OGjeIsqo9JkBF1w5ieS-387" value="&lt;div style=&quot;line-height: 30%;&quot;&gt;&lt;font style=&quot;line-height: 30%; font-size: 4px;&quot;&gt;HttpServletRequest&lt;/font&gt;&lt;div&gt;&lt;font style=&quot;line-height: 30%; font-size: 4px;&quot;&gt;.getUserPrincipal()&lt;/font&gt;&lt;/div&gt;&lt;div&gt;&lt;font style=&quot;line-height: 30%; font-size: 4px;&quot;&gt;.getName()&lt;/font&gt;&lt;/div&gt;&lt;/div&gt;" style="text;html=1;align=center;verticalAlign=middle;resizable=0;points=[];autosize=1;strokeColor=none;fillColor=none;" vertex="1" parent="1">
          <mxGeometry x="140" y="1520" width="60" height="30" as="geometry" />
        </mxCell>
        <mxCell id="-OGjeIsqo9JkBF1w5ieS-388" value="&lt;font style=&quot;font-size: 4px;&quot;&gt;senderUuid&lt;/font&gt;" style="text;html=1;align=center;verticalAlign=middle;resizable=0;points=[];autosize=1;strokeColor=none;fillColor=none;" vertex="1" parent="1">
          <mxGeometry x="145" y="1550" width="40" height="30" as="geometry" />
        </mxCell>
        <mxCell id="-OGjeIsqo9JkBF1w5ieS-389" value="" style="html=1;verticalAlign=bottom;endArrow=block;curved=0;rounded=0;entryX=0;entryY=0;entryDx=0;entryDy=0;exitX=-0.001;exitY=0.667;exitDx=0;exitDy=0;exitPerimeter=0;" edge="1" parent="1" source="-OGjeIsqo9JkBF1w5ieS-390" target="-OGjeIsqo9JkBF1w5ieS-369">
          <mxGeometry width="80" relative="1" as="geometry">
            <mxPoint x="135" y="1594.87" as="sourcePoint" />
            <mxPoint x="215" y="1594.87" as="targetPoint" />
            <mxPoint as="offset" />
          </mxGeometry>
        </mxCell>
        <mxCell id="-OGjeIsqo9JkBF1w5ieS-390" value="&lt;font style=&quot;font-size: 4px;&quot;&gt;delete(targetUuid, senderUuid)&lt;/font&gt;" style="text;html=1;align=center;verticalAlign=middle;resizable=0;points=[];autosize=1;strokeColor=none;fillColor=none;" vertex="1" parent="1">
          <mxGeometry x="135" y="1570" width="80" height="30" as="geometry" />
        </mxCell>
        <mxCell id="-OGjeIsqo9JkBF1w5ieS-391" value=":UUIDService" style="shape=umlLifeline;perimeter=lifelinePerimeter;whiteSpace=wrap;html=1;container=1;dropTarget=0;collapsible=0;recursiveResize=0;outlineConnect=0;portConstraint=eastwest;newEdgeStyle={&quot;curved&quot;:0,&quot;rounded&quot;:0};" vertex="1" parent="1">
          <mxGeometry x="520" y="1470" width="100" height="300" as="geometry" />
        </mxCell>
        <mxCell id="-OGjeIsqo9JkBF1w5ieS-392" value="" style="endArrow=blockThin;endFill=1;endSize=12;html=1;rounded=0;entryX=0;entryY=0;entryDx=0;entryDy=0;" edge="1" parent="1" target="-OGjeIsqo9JkBF1w5ieS-393">
          <mxGeometry width="160" relative="1" as="geometry">
            <mxPoint x="245" y="1600" as="sourcePoint" />
            <mxPoint x="400" y="1600" as="targetPoint" />
          </mxGeometry>
        </mxCell>
        <mxCell id="-OGjeIsqo9JkBF1w5ieS-393" value="" style="html=1;whiteSpace=wrap;" vertex="1" parent="1">
          <mxGeometry x="560" y="1600" width="20" height="55" as="geometry" />
        </mxCell>
        <mxCell id="-OGjeIsqo9JkBF1w5ieS-394" value="" style="endArrow=open;dashed=1;endFill=0;endSize=12;html=1;rounded=0;exitX=0;exitY=1;exitDx=0;exitDy=0;entryX=1.117;entryY=0.454;entryDx=0;entryDy=0;entryPerimeter=0;" edge="1" parent="1" target="-OGjeIsqo9JkBF1w5ieS-369">
          <mxGeometry width="160" relative="1" as="geometry">
            <mxPoint x="560" y="1655" as="sourcePoint" />
            <mxPoint x="470" y="1655" as="targetPoint" />
          </mxGeometry>
        </mxCell>
        <mxCell id="-OGjeIsqo9JkBF1w5ieS-395" value="&lt;font style=&quot;font-size: 4px;&quot;&gt;userUUID=&lt;font&gt;parseUUID(userUUID)&lt;/font&gt;&lt;/font&gt;" style="text;html=1;align=center;verticalAlign=middle;resizable=0;points=[];autosize=1;strokeColor=none;fillColor=none;" vertex="1" parent="1">
          <mxGeometry x="360" y="1628" width="80" height="30" as="geometry" />
        </mxCell>
        <mxCell id="-OGjeIsqo9JkBF1w5ieS-396" value="&lt;font style=&quot;font-size: 4px;&quot;&gt;parseUUID(userUUID)&lt;/font&gt;" style="text;html=1;align=center;verticalAlign=middle;resizable=0;points=[];autosize=1;strokeColor=none;fillColor=none;" vertex="1" parent="1">
          <mxGeometry x="360" y="1578" width="60" height="30" as="geometry" />
        </mxCell>
        <mxCell id="-OGjeIsqo9JkBF1w5ieS-397" value="&lt;div style=&quot;line-height: 60%;&quot;&gt;&lt;font style=&quot;font-size: 4px; line-height: 60%;&quot;&gt;ResponseStatus&lt;/font&gt;&lt;div&gt;&lt;font style=&quot;font-size: 4px; line-height: 60%;&quot;&gt;(targetUUID, HttpStatus.OK)&lt;/font&gt;&lt;/div&gt;&lt;/div&gt;" style="text;html=1;align=center;verticalAlign=middle;resizable=0;points=[];autosize=1;strokeColor=none;fillColor=none;" vertex="1" parent="1">
          <mxGeometry x="40" y="1695" width="70" height="30" as="geometry" />
        </mxCell>
      </root>
    </mxGraphModel>
  </diagram>
</mxfile>
